<svg width="159" height="44" viewBox="0 0 159 44" fill="none" xmlns="http://www.w3.org/2000/svg">
<path d="M28.74 38C28.54 38 28.44 37.9 28.44 37.7V22.304C28.44 22.104 28.54 22.004 28.74 22.004H35.244C35.436 22.004 35.596 22.056 35.724 22.16L38.484 24.896C38.572 24.976 38.624 25.044 38.64 25.1C38.664 25.156 38.676 25.248 38.676 25.376V28.664C38.676 28.768 38.636 28.86 38.556 28.94L37.236 30.224L36.12 31.184L37.44 32.936L38.796 35.84C38.828 35.912 38.852 35.984 38.868 36.056C38.892 36.12 38.904 36.2 38.904 36.296V37.7C38.904 37.9 38.804 38 38.604 38H35.436C35.26 38 35.14 37.92 35.076 37.76L33.144 32.144H32.244V37.7C32.244 37.9 32.144 38 31.944 38H28.74ZM33.564 29.204C34.228 29.204 34.68 29.068 34.92 28.796C35.16 28.516 35.28 27.996 35.28 27.236C35.28 26.468 35.16 25.948 34.92 25.676C34.68 25.396 34.228 25.256 33.564 25.256C32.908 25.256 32.456 25.396 32.208 25.676C31.96 25.948 31.836 26.468 31.836 27.236C31.836 27.996 31.96 28.516 32.208 28.796C32.456 29.068 32.908 29.204 33.564 29.204ZM41.031 38C40.831 38 40.731 37.9 40.731 37.7V26.576C40.731 26.472 40.771 26.352 40.851 26.216L43.695 22.184C43.783 22.064 43.911 22.004 44.079 22.004H48.051C48.227 22.004 48.355 22.064 48.435 22.184L51.291 26.216C51.371 26.328 51.411 26.448 51.411 26.576V37.7C51.411 37.9 51.311 38 51.111 38H47.715C47.515 38 47.415 37.9 47.415 37.7V32.6H44.739V37.7C44.739 37.9 44.639 38 44.439 38H41.031ZM46.071 30.02C46.807 30.02 47.303 29.86 47.559 29.54C47.823 29.212 47.955 28.592 47.955 27.68C47.955 26.768 47.823 26.152 47.559 25.832C47.303 25.504 46.807 25.34 46.071 25.34C45.343 25.34 44.847 25.504 44.583 25.832C44.327 26.152 44.199 26.768 44.199 27.68C44.199 28.592 44.327 29.212 44.583 29.54C44.847 29.86 45.343 30.02 46.071 30.02ZM57.3053 38C57.1133 38 56.9533 37.932 56.8253 37.796L54.4253 35.396C54.2893 35.268 54.2213 35.108 54.2213 34.916V22.304C54.2213 22.104 54.3213 22.004 54.5213 22.004H57.9173C58.1173 22.004 58.2173 22.104 58.2173 22.304V34.784H60.9053V22.304C60.9053 22.104 61.0053 22.004 61.2053 22.004H64.6013C64.8013 22.004 64.9012 22.104 64.9012 22.304V34.916C64.9012 35.108 64.8333 35.268 64.6973 35.396L62.2973 37.796C62.1693 37.932 62.0093 38 61.8173 38H57.3053ZM68.0916 38C67.8916 38 67.7916 37.9 67.7916 37.7V22.304C67.7916 22.104 67.8916 22.004 68.0916 22.004H76.4556C76.6556 22.004 76.7556 22.104 76.7556 22.304V24.896C76.7556 25.096 76.6556 25.196 76.4556 25.196H71.7876V28.604H76.0476C76.2476 28.604 76.3476 28.704 76.3476 28.904V31.1C76.3476 31.3 76.2476 31.4 76.0476 31.4H71.7876V34.796H76.4556C76.6556 34.796 76.7556 34.896 76.7556 35.096V37.7C76.7556 37.9 76.6556 38 76.4556 38H68.0916ZM79.9275 38C79.7275 38 79.6275 37.9 79.6275 37.7V22.304C79.6275 22.104 79.7275 22.004 79.9275 22.004H86.7435C86.9355 22.004 87.0955 22.068 87.2235 22.196L89.6235 24.596C89.7595 24.732 89.8275 24.892 89.8275 25.076V37.7C89.8275 37.9 89.7275 38 89.5275 38H86.1315C85.9315 38 85.8315 37.9 85.8315 37.7V25.196H83.6235V37.7C83.6235 37.9 83.5235 38 83.3235 38H79.9275ZM96.8259 38C96.6259 38 96.5259 37.9 96.5259 37.7V22.304C96.5259 22.104 96.6259 22.004 96.8259 22.004H100.222C100.422 22.004 100.522 22.104 100.522 22.304V28.004H103.486V22.304C103.486 22.104 103.586 22.004 103.786 22.004H107.182C107.382 22.004 107.482 22.104 107.482 22.304V37.7C107.482 37.9 107.382 38 107.182 38H103.786C103.586 38 103.486 37.9 103.486 37.7V31.196H100.522V37.7C100.522 37.9 100.422 38 100.222 38H96.8259ZM113.438 38C113.254 38 113.094 37.932 112.958 37.796L110.558 35.396C110.422 35.268 110.354 35.108 110.354 34.916V25.076C110.354 24.892 110.422 24.732 110.558 24.596L112.958 22.196C113.094 22.068 113.254 22.004 113.438 22.004H118.154C118.346 22.004 118.506 22.068 118.634 22.196L121.034 24.596C121.17 24.732 121.238 24.892 121.238 25.076V34.916C121.238 35.108 121.17 35.268 121.034 35.396L118.634 37.796C118.506 37.932 118.346 38 118.154 38H113.438ZM114.854 34.796H116.738C117.074 34.796 117.242 34.572 117.242 34.124V25.88C117.242 25.424 117.074 25.196 116.738 25.196H114.854C114.526 25.196 114.362 25.424 114.362 25.88V34.124C114.362 34.572 114.526 34.796 114.854 34.796ZM127.196 38C127.004 38 126.844 37.932 126.716 37.796L124.316 35.396C124.18 35.268 124.112 35.108 124.112 34.916V22.304C124.112 22.104 124.212 22.004 124.412 22.004H127.808C128.008 22.004 128.108 22.104 128.108 22.304V34.556C128.108 34.716 128.188 34.796 128.348 34.796H130.316V22.304C130.316 22.104 130.416 22.004 130.616 22.004H134.012C134.212 22.004 134.312 22.104 134.312 22.304V37.7C134.312 37.9 134.212 38 134.012 38H127.196ZM137.13 38C136.93 38 136.83 37.9 136.83 37.7V35.444C136.83 35.34 136.834 35.256 136.842 35.192C136.858 35.128 136.906 35.076 136.986 35.036L140.13 33.596V31.46L137.034 29.54C136.898 29.46 136.83 29.34 136.83 29.18V24.776C136.83 24.648 136.838 24.556 136.854 24.5C136.87 24.436 136.93 24.368 137.034 24.296L140.19 22.16C140.27 22.112 140.342 22.076 140.406 22.052C140.478 22.02 140.566 22.004 140.67 22.004H143.91C144.11 22.004 144.21 22.104 144.21 22.304V24.344C144.21 24.52 144.15 24.64 144.03 24.704L140.886 26V28.22L144.03 30.02C144.15 30.076 144.21 30.204 144.21 30.404V35.624C144.21 35.688 144.198 35.756 144.174 35.828C144.158 35.9 144.118 35.952 144.054 35.984L140.286 37.856C140.238 37.88 140.178 37.912 140.106 37.952C140.042 37.984 139.978 38 139.914 38H137.13ZM147.029 38C146.829 38 146.729 37.9 146.729 37.7V22.304C146.729 22.104 146.829 22.004 147.029 22.004H155.393C155.593 22.004 155.693 22.104 155.693 22.304V24.896C155.693 25.096 155.593 25.196 155.393 25.196H150.725V28.604H154.985C155.185 28.604 155.285 28.704 155.285 28.904V31.1C155.285 31.3 155.185 31.4 154.985 31.4H150.725V34.796H155.393C155.593 34.796 155.693 34.896 155.693 35.096V37.7C155.693 37.9 155.593 38 155.393 38H147.029Z" fill="white"/>
<path d="M31.7106 8.35037L25.8571 4.88228L9.37327 0.209785L26.1935 3.80481L33.3253 8.5524L32.9889 9.22582L33.3253 9.29316L33.4599 9.39417L30.5668 10.6737L30.6677 10.7747L34.0318 9.66354L37.564 11.1787L30.1631 11.4144V11.5828L38.2032 11.4144C41.7836 12.9749 43.2945 14.0564 45.4023 16.2294C42.0845 14.7895 40.0249 14.3256 36.1511 13.8387L29.1875 12.997L25.0161 12.5929L19.8691 17.6772V30.3711L23.1322 38.2501L22.1567 36.4655L17.9852 29.8661L9.70967 18.6537L19.2636 33.8392L5 21.28L11.3244 17.4078L15.8323 14.7478L21.1811 11.8858L24.4442 10.3033L28.6493 8.21569L31.7106 8.35037Z" fill="url(#paint0_linear_577_12)"/>
<path d="M13.4742 6.39859L19.2007 7.94932L17.1796 7.03911L16.4385 6.39859L12.0257 2.96002L8.32032 0.195679L9.16245 0.633928L15.5627 3.196L23.7146 6.39859L28.5653 8.11788H27.2516L14.2153 10.4777L4.24437 21.1305L7.71398 13.7814L0 14.6242L13.4742 6.39859Z" fill="url(#paint1_linear_577_12)"/>
<path d="M24.7543 12.8153L21.9957 15.271L31.1797 16.3475V16.4821L29.1949 17.1212L21.4238 20.3506L21.8275 29.8035L22.3658 35.3204L22.8031 38.348L23.3414 25.3293H23.4423L23.7451 23.3782L25.8981 28.9288L24.7543 22.1672L29.3631 17.6258L33.6019 16.0111L44.8043 16.1793L34.9812 13.9591L24.7543 12.8153Z" fill="#5E3B76"/>
<path d="M27 10.9285L27.9954 9.6843L28.9286 10.9285L28.0286 12.2143L27 10.9285Z" fill="black"/>
<defs>
<linearGradient id="paint0_linear_577_12" x1="25.2011" y1="0" x2="25.2011" y2="38.2501" gradientUnits="userSpaceOnUse">
<stop stop-color="white"/>
<stop offset="1" stop-color="#8F67AE"/>
</linearGradient>
<linearGradient id="paint1_linear_577_12" x1="14.2826" y1="0.195679" x2="14.2826" y2="21.1305" gradientUnits="userSpaceOnUse">
<stop stop-color="white"/>
<stop offset="1" stop-color="#432B55"/>
</linearGradient>
</defs>
</svg>
